<?xml version="1.0" encoding="UTF-8"?>
<svg width="69px" height="70px" viewBox="0 0 69 70" version="1.1" xmlns="http://www.w3.org/2000/svg" xmlns:xlink="http://www.w3.org/1999/xlink">
    <!-- Generator: Sketch 45.2 (43514) - http://www.bohemiancoding.com/sketch -->
    <title>icon / briefcase</title>
    <desc>Created with Sketch.</desc>
    <defs></defs>
    <g id="Symbols" stroke="none" stroke-width="1" fill="none" fill-rule="evenodd">
        <g id="card-/-4" transform="translate(-122.000000, -58.000000)" stroke="#FFFFFF">
            <g id="icon-/-briefcase">
                <g transform="translate(123.000000, 58.000000)">
                    <g>
                        <path d="M62.2142857,68.9522816 L4.78571429,68.9522816 C2.144,68.9522816 0,66.8080803 0,64.1554107 L0,20.9835724 C0,18.3309027 2.144,16.1867014 4.78571429,16.1867014 L62.2142857,16.1867014 C64.856,16.1867014 67,18.3309027 67,20.9835724 L67,64.1554107 C67,66.8080803 64.856,68.9522816 62.2142857,68.9522816 Z" id="Stroke-279" stroke-width="2" stroke-linecap="round" stroke-linejoin="round"></path>
                        <path d="M23.9285714,11.3898305 C23.9285714,6.09408501 28.2165714,1.79608866 33.5,1.79608866 C38.7834286,1.79608866 43.0714286,6.09408501 43.0714286,11.3898305" id="Stroke-280" stroke-width="2" stroke-linecap="round" stroke-linejoin="round"></path>
                        <path d="M0,54.5616688 L67,54.5616688" id="Stroke-281" stroke-width="2" stroke-linecap="round" stroke-linejoin="round"></path>
                        <path d="M38.2857143,40.1710561 C38.2857143,42.8237257 36.1417143,44.967927 33.5,44.967927 C30.8582857,44.967927 28.7142857,42.8237257 28.7142857,40.1710561 C28.7142857,37.5183864 30.8582857,35.3741851 33.5,35.3741851 C36.1417143,35.3741851 38.2857143,37.5183864 38.2857143,40.1710561" id="Fill-282" stroke-width="2"></path>
                    </g>
                </g>
            </g>
        </g>
    </g>
</svg>