<?xml version="1.0" encoding="UTF-8"?>
<svg width="36px" height="20px" viewBox="0 0 36 20" version="1.1" xmlns="http://www.w3.org/2000/svg" xmlns:xlink="http://www.w3.org/1999/xlink">
    <!-- Generator: Sketch 45.2 (43514) - http://www.bohemiancoding.com/sketch -->
    <title>logo</title>
    <desc>Created with Sketch.</desc>
    <defs></defs>
    <g id="Page-1" stroke="none" stroke-width="1" fill="none" fill-rule="evenodd">
        <g id="Branding" transform="translate(-34.000000, -37.000000)">
            <g id="logo" transform="translate(52.000000, 47.000000) rotate(-360.000000) translate(-52.000000, -47.000000) translate(34.000000, 37.000000)">
                <g>
                    <path d="M34.9350951,-1.67775838e-15 L28.9024861,-1.67775838e-15 C27.842099,-1.41538341e-15 26.8737521,0.408190237 26.404919,1.05280703 L21.0242385,8.45091338 C20.764264,8.80836237 20.9810597,9.24096847 21.5084652,9.41716613 C21.6548874,9.46608342 21.8159459,9.49152542 21.9791906,9.49152542 L28.0117996,9.49152542 C29.0721867,9.49152542 30.0405336,9.08333519 30.5093667,8.43871839 L35.8900472,1.04061205 C36.1500217,0.683163052 35.933226,0.250556959 35.4058205,0.0743592951 C35.2593983,0.0254419989 35.0983398,-1.75603277e-15 34.9350951,-1.67775838e-15 Z" id="Rectangle-Copy" fill="#FFBB00"></path>
                    <path d="M12.7220478,-1.77635684e-15 L18.7546568,-1.77635684e-15 C19.8150438,-1.51398186e-15 20.7833908,0.408190237 21.2522239,1.05280703 L26.6329043,8.45091338 C26.8928788,8.80836237 26.6760831,9.24096847 26.1486777,9.41716613 C26.0022554,9.46608342 25.841197,9.49152542 25.6779522,9.49152542 L19.6453432,9.49152542 C18.5849562,9.49152542 17.6166092,9.08333519 17.1477761,8.43871839 L11.7670957,1.04061205 C11.5071212,0.683163052 11.7239169,0.250556959 12.2513223,0.0743592951 C12.3977446,0.0254419989 12.558803,-1.85463122e-15 12.7220478,-1.77635684e-15 Z" id="Rectangle-Copy-4" fill="#C7E3FA" style="mix-blend-mode: multiply;"></path>
                    <path d="M12.7220478,20 L18.7546568,20 C19.8150438,20 20.7833908,19.5918098 21.2522239,18.947193 L26.6329043,11.5490866 C26.8928788,11.1916376 26.6760831,10.7590315 26.1486777,10.5828339 C26.0022554,10.5339166 25.841197,10.5084746 25.6779522,10.5084746 L19.6453432,10.5084746 C18.5849562,10.5084746 17.6166092,10.9166648 17.1477761,11.5612816 L11.7670957,18.959388 C11.5071212,19.3168369 11.7239169,19.749443 12.2513223,19.9256407 C12.3977446,19.974558 12.558803,20 12.7220478,20 Z" id="Rectangle-Copy-3" fill="#FF6D6D"></path>
                    <path d="M34.9350951,20 L28.9024861,20 C27.842099,20 26.8737521,19.5918098 26.404919,18.947193 L21.0242385,11.5490866 C20.764264,11.1916376 20.9810597,10.7590315 21.5084652,10.5828339 C21.6548874,10.5339166 21.8159459,10.5084746 21.9791906,10.5084746 L28.0117996,10.5084746 C29.0721867,10.5084746 30.0405336,10.9166648 30.5093667,11.5612816 L35.8900472,18.959388 C36.1500217,19.3168369 35.933226,19.749443 35.4058205,19.9256407 C35.2593983,19.974558 35.0983398,20 34.9350951,20 Z" id="Rectangle-Copy-2" fill="#71B5FF" style="mix-blend-mode: multiply;"></path>
                    <g id="Group" style="mix-blend-mode: color-burn;"></g>
                </g>
                <g id="Group-2" fill="#495762">
                    <rect id="Rectangle" x="0" y="0" width="9.94285714" height="9.49152542" rx="1"></rect>
                    <rect id="Rectangle-Copy-8" x="0" y="10.5084746" width="9.94285714" height="9.49152542" rx="1"></rect>
                </g>
            </g>
        </g>
    </g>
</svg>