<?xml version="1.0" encoding="utf-8"?>
<!-- Generator: Adobe Illustrator 21.1.0, SVG Export Plug-In . SVG Version: 6.00 Build 0)  -->
<svg version="1.1" id="Layer_1" xmlns="http://www.w3.org/2000/svg" xmlns:xlink="http://www.w3.org/1999/xlink" x="0px" y="0px"
	 viewBox="0 0 595.3 841.9" style="enable-background:new 0 0 595.3 841.9;" xml:space="preserve">
<style type="text/css">
	.st0{fill:#FE7162;}
	.st1{fill:#A159FE;}
	.st2{fill:#0ACE82;}
	.st3{fill:#1ABBFD;}
	.st4{fill:#2F313A;}
</style>
<g>
	<path class="st0" d="M582.9-25.2c-0.9,0.8-1.5,0.8-1.7-0.5C581.8-26,582.6-26.4,582.9-25.2z"/>
	<path class="st0" d="M574.6-26.6c-0.2,0.3-0.2,0.9-0.5,0.9c-0.7,0.2-1-0.4-1-1C573.6-27,574.1-27.2,574.6-26.6z"/>
	<polygon class="st0" points="28.6,-26.8 28.5,-26.4 28.4,-26.7 28.5,-26.9 	"/>
	<path class="st0" d="M182.2,301.9c-6.3-1.7-12.8-2.1-19.1-3.8c-43.3-11.9-74.2-47.6-79.3-92.2C77.1,147,119.4,93.6,178.2,86.8
		c4.8-0.6,9.6-0.8,14.4-0.8c71.5,0,143-0.1,214.4-0.1c54.7,0,100.6,40.8,107.1,95.2c7.1,59.4-35.1,113.1-94.4,120
		c-1.1,0.1-2.2,0.6-3.3,0.9c-6.5,0-13.1,0.1-19.7,0.1c-32.6,0-65.3,0-97.9,0C260,302,221.1,302,182.2,301.9z"/>
	<path class="st1" d="M182.2,301.9c38.9,0.1,77.8,0.1,116.7,0.2c0.1,32.8,0.2,65.5,0.3,98.3c0,7.5-1,15.1,0.6,22.6
		c-1.5,1.7-0.8,3.8-0.8,5.7c-0.1,29.8-0.2,59.5-0.2,89.3c-39.3,0-78.6-0.1-118-0.1c-5.9-1.5-12.1-2.1-18-3.6
		c-49.2-13.2-82.7-59.5-79.7-111.1c3-51.4,44-94.8,94.7-100.3C179.3,302.6,180.8,302.2,182.2,301.9z"/>
	<path class="st2" d="M180.9,517.8c39.3,0,78.6,0.1,118,0.1c0,38.5,1.1,77-0.2,115.4c-1.7,50.5-44.1,93.8-94.1,99.8
		c-46.3,5.5-90.6-19-110.9-60.4c-30.9-62.8,8.3-140.6,77.1-152.9C174.1,519.2,177.7,519.5,180.9,517.8z"/>
	<path class="st3" d="M299.8,422.9c-1.6-7.5-0.6-15.1-0.6-22.6c0.2-0.8,0.5-1.6,0.6-2.4c4.9-38.3,24.7-66.3,58.6-84.4
		c12-6.5,25.1-9.4,38.4-11.5c6.6,0,13.1-0.1,19.7-0.1c12.5,1.9,24.7,4.7,36.4,10.1c66.7,30.6,83.4,120.4,32,172.7
		c-53.5,54.5-142.3,39.9-175.5-28.8C304.2,445.5,301.2,434.4,299.8,422.9z"/>
	<path class="st4" d="M396.8,302c-13.3,2-26.4,5-38.4,11.5c-33.9,18.2-53.7,46.1-58.6,84.4c-0.1,0.8-0.4,1.6-0.6,2.4
		c-0.1-32.8-0.2-65.5-0.3-98.3C331.5,302.1,364.2,302.1,396.8,302z"/>
	<path class="st4" d="M-141.6,690.6c-0.1-1-0.1-2.1-0.2-3.1c1-2.1,0.5-4.2,0.5-6.4c0-174.3,0-348.5,0-522.8
		c0-13.7,1.2-27.3,4.7-40.6C-115.8,40.6-66.4-6.4,11.9-22.7c1.2-0.3,3.3,0.4,3.6-1.9c4.4,0.1,8.6-1.6,12.9-1.1c0,0,0.1,0.2,0.1,0.2
		l0.1-0.3c3.2,0.1,6.5,0.6,9.6-0.5c1.3,1.5,3.1,0.8,4.7,0.8c170.7,0,341.4,0,512.2,0c1.6,0,3.4,0.7,4.7-0.8
		c4.4,0.9,8.9,0.8,13.3,0.6c0,0.7,0.3,1.2,1,1c0.2,0,0.3-0.6,0.5-0.9c2.2,0.6,4.2,1.6,6.6,0.9c0.3,1.3,0.9,1.4,1.7,0.5
		c5,2,10.4,1.2,15.5,2.7c0.4,2.1,2.3,1.7,3.7,2.1c40.8,11,74.1,33.4,99.7,66.9c25,32.7,37.4,69.9,37.5,111
		c0.2,124,0.2,247.9,0,371.9c-0.1,49.9,1.1,99.9-0.8,149.8c-0.7,18.6-4.6,36.4-10.6,53.9c-3.4,10-8.4,19.3-13,28.7
		c-3.1,4.6-6.2,9.1-9.2,13.7c-0.4,0.7,0.1,1.2,0.8,1.5c-0.3,0.4-0.7,0.8-1,1.2c-0.3-0.8-0.8-0.8-1.4-0.3c-0.7,0.7-0.8,1.3,0.2,1.9
		c-0.6,0.8-1.2,1.7-1.8,2.5c-0.3-0.8-0.8-0.9-1.4-0.4c-0.7,0.7-0.8,1.3,0.1,1.9c-0.3,0.5-0.6,0.9-0.9,1.3c-2.6,0.1-3.5,1.7-3.5,4.1
		c-0.4,0.4-0.7,0.8-1.1,1.1c-4.4,2.2-6.9,6.3-10.2,9.6c-36.2,35.8-79.9,54-130.8,54.1c-170.5,0.2-340.9,0.1-511.4,0.1
		c-19.1,0-37.8-2.8-56-8.7c-34.6-11-63.2-30.7-86.5-58.5c-1.3-1.6-2-4-4.7-4.1c-0.6-0.7-1.2-1.5-1.8-2.2c0.7-1.9-0.5-2.5-2.1-2.9
		c-0.3-0.4-0.6-0.8-0.9-1.1c-0.7-3.3-2.6-5.7-5.1-7.9c-0.3-0.4-0.6-0.8-0.9-1.2c-1.1-5.2-4.9-9.1-7.1-13.7
		c-8.5-17.5-14.7-35.7-17.7-55C-140,696.9-138.7,693.1-141.6,690.6z M298.8,518.9c0.1-29.8,0.1-59.5,0.2-89.3c0-1.9-0.8-4,0.8-5.7
		c1.4,11.5,4.4,22.5,9.4,32.9c33.3,68.8,122,83.3,175.5,28.8c51.4-52.3,34.7-142.1-32-172.7c-11.6-5.3-23.9-8.1-36.4-10.1
		c1.1-0.3,2.2-0.7,3.3-0.9c59.2-6.9,101.5-60.6,94.4-120c-6.5-54.4-52.3-95.2-107.1-95.2c-71.5,0-143,0-214.4,0.1
		c-4.8,0-9.6,0.3-14.4,0.8C119.4,94.6,77.1,148,83.9,206.9c5.1,44.6,35.9,80.4,79.3,92.2c6.3,1.7,12.8,2.1,19.1,3.8
		c-1.5,0.3-2.9,0.7-4.4,0.8c-50.7,5.5-91.7,49-94.7,100.3c-3,51.6,30.5,97.9,79.7,111.1c6,1.6,12.1,2.1,18,3.6
		c-3.2,1.7-6.8,1.4-10.2,2c-68.8,12.4-107.9,90.1-77.1,152.9c20.3,41.4,64.6,65.9,110.9,60.4c50-6,92.4-49.3,94.1-99.8
		C299.9,595.9,298.8,557.4,298.8,518.9z"/>
</g>
</svg>
