<?xml version="1.0" encoding="UTF-8"?>
<svg width="47px" height="47px" viewBox="0 0 47 47" version="1.1" xmlns="http://www.w3.org/2000/svg" xmlns:xlink="http://www.w3.org/1999/xlink">
    <!-- Generator: Sketch 45.2 (43514) - http://www.bohemiancoding.com/sketch -->
    <title>illustrator</title>
    <desc>Created with Sketch.</desc>
    <defs></defs>
    <g id="Symbols" stroke="none" stroke-width="1" fill="none" fill-rule="evenodd">
        <g id="logo-/-illustrator" fill-rule="nonzero">
            <g id="illustrator">
                <path d="M47,39.6418787 C47,43.7056771 43.7056771,47 39.6418787,47 L7.35812133,47 C3.2943229,47 0,43.7056771 0,39.6418787 L0,9.56555773 L9.56555773,0 L39.6418787,0 C43.7056771,0 47,3.2943229 47,7.35812133 L47,39.6418787 Z" id="Shape" fill="#F3C40F"></path>
                <path d="M18.3242443,26.7265675 L16.6801652,31 L14,31 L19.8333281,16 L22.8738548,16 L29,31 L26.3648333,31 L24.6305702,26.7265675 L18.3242443,26.7265675 Z M19.0899656,24.6115012 L23.7972109,24.6115012 L21.7476784,19.5826047 L21.3872233,17.8991938 L21.0268618,19.5826047 L19.0899656,24.6115012 Z" id="Shape" fill="#FFD636"></path>
                <path d="M31.5000519,16 C31.9164734,16 32.2664336,16.1209793 32.5500363,16.3621858 C32.8500467,16.6337546 33,16.9506319 33,17.3126296 C33,17.7051777 32.8500467,18.021961 32.5500363,18.2630735 C32.2664336,18.504562 31.9163696,18.6252592 31.5000519,18.6252592 C31.0663921,18.6252592 30.7164319,18.504656 30.4499637,18.2630735 C30.1499533,18.021961 30,17.7050837 30,17.3126296 C30,16.9505379 30.1499533,16.6336606 30.4499637,16.3621858 C30.7164319,16.1209793 31.0664959,16 31.5000519,16 Z M30.2000069,31.999906 L30.2000069,20.5941097 L32.9251272,20.5941097 L32.9251272,32 L30.2000069,32 L30.2000069,31.999906 Z" id="Shape" fill="#FFD636"></path>
                <polygon id="Shape" fill="#5D5D5D" opacity="0.2" points="0 14 0 9 5 9"></polygon>
                <path d="M0,10 L6.66673077,10 C8.5,10 10,8.52557692 10,6.69230769 L10,0 L0,10 Z" id="Shape" fill="#FFD636"></path>
                <path d="M18.3242443,26.7265675 L16.6801652,31 L14,31 L19.8333281,16 L22.8738548,16 L29,31 L26.3648333,31 L24.6305702,26.7265675 L18.3242443,26.7265675 Z M19.0899656,24.6115012 L23.7972109,24.6115012 L21.7476784,19.5826047 L21.3872233,17.8991938 L21.0268618,19.5826047 L19.0899656,24.6115012 Z" id="Shape" fill="#FFFFFF"></path>
                <path d="M31.5000519,16 C31.9164734,16 32.2664336,16.1209793 32.5500363,16.3621858 C32.8500467,16.6337546 33,16.9506319 33,17.3126296 C33,17.7051777 32.8500467,18.021961 32.5500363,18.2630735 C32.2664336,18.504562 31.9163696,18.6252592 31.5000519,18.6252592 C31.0663921,18.6252592 30.7164319,18.504656 30.4499637,18.2630735 C30.1499533,18.021961 30,17.7050837 30,17.3126296 C30,16.9505379 30.1499533,16.6336606 30.4499637,16.3621858 C30.7164319,16.1209793 31.0664959,16 31.5000519,16 Z M30.2000069,31.999906 L30.2000069,20.5941097 L32.9251272,20.5941097 L32.9251272,32 L30.2000069,32 L30.2000069,31.999906 Z" id="Shape" fill="#FFFFFF"></path>
            </g>
        </g>
    </g>
</svg>