<?xml version="1.0" encoding="UTF-8"?>
<svg width="57px" height="29px" viewBox="0 0 57 29" version="1.1" xmlns="http://www.w3.org/2000/svg" xmlns:xlink="http://www.w3.org/1999/xlink">
    <!-- Generator: Sketch 45.2 (43514) - http://www.bohemiancoding.com/sketch -->
    <title>logo / materialize</title>
    <desc>Created with Sketch.</desc>
    <defs></defs>
    <g id="Symbols" stroke="none" stroke-width="1" fill="none" fill-rule="evenodd">
        <g id="circle_logos" transform="translate(-37.000000, -53.000000)">
            <g id="logo-/-materialize">
                <g transform="translate(37.000000, 53.000000)">
                    <g id="materialize">
                        <g id="Group" fill-rule="nonzero">
                            <path d="M48.3991071,15.6192982 L56.6946429,15.6192982 C53.79375,16.5859649 52.8776786,18.5192982 52.36875,24.0140351 C52.0125,27.9315789 50.23125,28.9491228 50.23125,28.9491228 C48.9080357,28.9491228 47.5848214,23.3017544 46.4142857,17.2982456 C46.8723214,16.2807018 47.5339286,15.7719298 48.3991071,15.6192982 Z" id="Shape" fill="#EB7077"></path>
                            <path d="M50.1803571,28.8982456 L41.8848214,28.8982456 C43.3607143,28.8982456 44.3785714,26.1 44.9892857,22.5385965 C45.3964286,20.1473684 45.8035714,18.4175439 46.3633929,17.2473684 C47.5848214,23.2508772 48.8571429,28.8982456 50.1803571,28.8982456 Z" id="Shape" fill="#EB7077"></path>
                            <path d="M46.3633929,17.2473684 C45.7526786,18.3666667 45.3455357,20.1473684 44.9892857,22.5385965 C44.3785714,26.1 43.3607143,28.8982456 41.8848214,28.8982456 C40.3071429,28.5421053 39.0348214,22.5385965 37.3553571,13.3807018 C37.3044643,13.0754386 37.2535714,12.8210526 37.2026786,12.5157895 C38.475,5.90175439 39.7982143,0.203508772 41.1214286,0.203508772 L41.5794643,0.203508772 C43.1571429,0.559649123 44.4294643,6.56315789 46.1089286,15.7210526 C46.2616071,16.2807018 46.3125,16.7385965 46.3633929,17.2473684 Z" id="Shape" fill="#F6A2AD"></path>
                            <path d="M33.3348214,0.254385965 L41.1723214,0.254385965 C39.8491071,0.254385965 38.475,5.95263158 37.2535714,12.5666667 C36.0830357,6.35964912 34.7089286,0.254385965 33.3348214,0.254385965 Z" id="Shape" fill="#EB7077"></path>
                            <path d="M37.2026786,12.5666667 C37.1008929,13.2280702 36.9482143,13.8894737 36.8464286,14.6017544 C34.9633929,24.8789474 33.84375,28.6438596 32.5205357,28.9491228 C31.0446429,28.9491228 29.6196429,22.2842105 28.4491071,15.7719298 C28.4491071,15.6701754 28.3982143,15.5684211 28.3982143,15.4666667 C28.4491071,15.1614035 28.5,14.9070175 28.5508929,14.6017544 C30.4339286,4.27368421 31.5535714,0.559649123 32.8258929,0.254385965 L33.2839286,0.254385965 C34.7089286,0.254385965 36.0830357,6.35964912 37.2026786,12.5666667 Z" id="Shape" fill="#EB7077"></path>
                            <path d="M32.5714286,28.8982456 L24.2758929,28.8982456 C25.7008929,28.8982456 27.1258929,22.5385965 28.3982143,15.4157895 C28.3982143,15.5175439 28.4491071,15.6192982 28.4491071,15.7210526 C29.6196429,22.2842105 31.1464286,28.8982456 32.5714286,28.8982456 Z" id="Shape" fill="#EB7077"></path>
                            <path d="M28.3982143,15.4666667 C27.075,22.5894737 25.65,28.9491228 24.2758929,28.9491228 C22.6473214,28.5421053 21.4258929,22.5385965 19.6955357,13.4315789 C19.6446429,13.1263158 19.59375,12.8719298 19.5428571,12.5666667 C20.8151786,5.95263158 22.1383929,0.254385965 23.4616071,0.254385965 L23.9196429,0.254385965 C25.5482143,0.610526316 26.71875,6.5122807 28.3982143,15.4666667 Z" id="Shape" fill="#F6A2AD"></path>
                            <path d="M15.6241071,0.254385965 L23.4616071,0.254385965 C22.1383929,0.254385965 20.8151786,5.95263158 19.5428571,12.5666667 C18.4232143,6.35964912 17.0491071,0.254385965 15.6241071,0.254385965 Z" id="Shape" fill="#EB7077"></path>
                            <path d="M19.59375,12.5666667 C19.4919643,13.2280702 19.3392857,13.8894737 19.2375,14.6017544 C17.3544643,24.8789474 16.2348214,28.6438596 14.9116071,28.9491228 C13.4357143,28.9491228 13.9955357,28.6947368 13.0794643,24.5736842 C12.1633929,20.4526316 11.4508929,18.0105263 10.4839286,16.7385965 C10.6366071,16.0263158 10.7383929,15.3140351 10.8910714,14.6017544 C12.825,4.27368421 13.9446429,0.559649123 15.2169643,0.254385965 L15.675,0.254385965 C17.0491071,0.254385965 18.4232143,6.35964912 19.59375,12.5666667 Z" id="Shape" fill="#EB7077"></path>
                            <path d="M14.8607143,28.8982456 L6.61607143,28.8982456 C7.93928571,28.8982456 9.2625,23.2508772 10.5348214,16.6877193 C11.4508929,17.9596491 12.1633929,20.4017544 13.1303571,24.522807 C13.9955357,28.6438596 13.3848214,28.8982456 14.8607143,28.8982456 Z" id="Shape" fill="#EB7077"></path>
                            <path d="M10.5348214,16.6877193 C9.2625,23.2508772 7.93928571,28.8982456 6.61607143,28.8982456 C6.46339286,28.6947368 5.54732143,28.8982456 4.68214286,23.8105263 C3.91875,19.1298246 2.54464286,16.1789474 0.305357143,15.6192982 L8.60089286,15.6192982 C9.41517857,15.6701754 9.92410714,15.9754386 10.5348214,16.6877193 Z" id="Shape" fill="#F6A2AD"></path>
                        </g>
                    </g>
                </g>
            </g>
        </g>
    </g>
</svg>